HIERARCHY
ROOT hip
{
	OFFSET 0.000000 0.000000 0.000000 
	CHANNELS 6 Xposition Yposition Zposition Xrotation Zrotation Yrotation
	JOINT abdomen
	{
		OFFSET 0.000000 3.402643 0.000000 
		CHANNELS 3 Xrotation Zrotation Yrotation
		JOINT chest
		{
			OFFSET 0.000000 8.438565 -0.680529 
			CHANNELS 3 Xrotation Zrotation Yrotation
			JOINT neck
			{
				OFFSET 0.000000 10.207942 -0.272212 
				CHANNELS 3 Xrotation Zrotation Yrotation
				JOINT head
				{
					OFFSET 0.000000 3.130431 0.000000 
					CHANNELS 3 Xrotation Zrotation Yrotation
					End Site
					{
						OFFSET 0.000000 3.130435 0.000000 
					}
				}
			}
			JOINT lCollar
			{
				OFFSET 3.470700 6.669187 -0.816635 
				CHANNELS 3 Yrotation Zrotation Xrotation
				JOINT lShldr
				{
					OFFSET 3.198488 0.000000 0.000000 
					CHANNELS 3 Zrotation Yrotation Xrotation
					JOINT lForeArm
					{
						OFFSET 10.139888 0.000000 0.000000 
						CHANNELS 3 Yrotation Zrotation Xrotation
						JOINT lHand
						{
							OFFSET 8.370511 0.000000 0.000000 
							CHANNELS 3 Zrotation Yrotation Xrotation
							End Site
							{
								OFFSET 4.083176 0.000000 0.000000 
							}
						}
					}
				}
			}
			JOINT rCollar
			{
				OFFSET -3.470700 6.669187 -0.816635 
				CHANNELS 3 Yrotation Zrotation Xrotation
				JOINT rShldr
				{
					OFFSET -3.198488 0.000000 0.000000 
					CHANNELS 3 Zrotation Yrotation Xrotation
					JOINT rForeArm
					{
						OFFSET -10.139888 0.000000 0.000000 
						CHANNELS 3 Yrotation Zrotation Xrotation
						JOINT rHand
						{
							OFFSET -8.370511 0.000000 0.000000 
							CHANNELS 3 Zrotation Yrotation Xrotation
							End Site
							{
								OFFSET -4.083176 0.000000 0.000000 
							}
						}
					}
				}
			}
		}
	}
	JOINT lThigh
	{
		OFFSET 5.308129 -1.633274 1.361059 
		CHANNELS 3 Xrotation Zrotation Yrotation
		JOINT lShin
		{
			OFFSET -2.041588 -20.007561 0.000000 
			CHANNELS 3 Xrotation Zrotation Yrotation
			JOINT lFoot
			{
				OFFSET 0.000000 -19.190928 -1.224953 
				CHANNELS 3 Xrotation Yrotation Zrotation
				End Site
				{
					OFFSET 0.000000 -2.449906 4.627600 
				}
			}
		}
	}
	JOINT rThigh
	{
		OFFSET -5.308129 -1.633274 1.361059 
		CHANNELS 3 Xrotation Zrotation Yrotation
		JOINT rShin
		{
			OFFSET 2.041588 -20.007561 0.000000 
			CHANNELS 3 Xrotation Zrotation Yrotation
			JOINT rFoot
			{
				OFFSET 0.000000 -19.190928 -1.224953 
				CHANNELS 3 Xrotation Yrotation Zrotation
				End Site
				{
					OFFSET 0.000000 -2.449906 4.627600 
				}
			}
		}
	}
}
MOTION
Frames: 16
Frame Time: 0.033333
0.889914 52.175552 -0.328730 -10.224609 1.728516 -169.414063 19.553596 0.944091 0.541927 -12.177734 -0.361328 -1.679688 51.063168 8.107644 2.471410 -45.566410 3.417969 33.193359 2.000000 -2.000000 0.000000 -59.033203 3.378906 19.834562 -87.128159 -0.408454 -3.033792 39.559715 42.652485 32.354557 -2.000000 2.000000 0.000000 54.140625 -16.552736 18.544922 95.526680 -0.098511 -3.063187 -58.334076 -44.407711 61.779285 -4.392580 10.178421 7.386014 13.139161 -5.177101 -1.342888 -7.870523 -0.119962 -5.545194 0.458280 -9.208076 -30.357346 13.341042 5.021216 1.120825 -7.227318 -5.507181 6.765053 
0.875654 52.175552 -0.353055 -10.400391 1.728516 -169.423538 19.553596 0.944091 0.541927 -12.001954 -0.361328 -1.679688 51.063168 8.107644 2.471410 -45.410156 3.212890 33.173832 2.000000 -2.000000 0.000000 -59.042969 3.457031 19.687504 -87.128159 -0.408454 -3.033792 39.706463 42.824409 32.462830 -2.000000 2.000000 0.000000 53.955074 -16.533201 18.789063 95.526680 -0.098511 -3.063187 -58.334076 -44.407711 61.779285 -4.373322 10.169619 7.563324 13.139157 -5.177112 -1.342889 -7.768251 0.133912 -5.426911 0.457009 -9.234426 -30.182514 13.357143 5.033340 1.132533 -7.428025 -5.751794 7.035087 
0.858381 52.159809 -0.377493 -10.400391 1.728516 -169.423538 19.553596 0.944091 0.541927 -12.001954 -0.361328 -1.679688 51.063168 8.107644 2.471410 -45.224613 3.203125 33.017582 2.000000 -2.000000 0.000000 -58.691406 3.369141 19.922447 -87.128159 -0.408454 -3.033792 39.706463 42.824409 32.462830 -2.000000 2.000000 0.000000 53.964840 -16.357422 18.710936 95.350899 -0.088762 -3.062623 -58.334076 -44.407711 61.779285 -4.373302 10.150087 7.759510 13.138890 -5.177031 -1.352619 -7.897050 -0.122287 -5.321649 0.455894 -9.222514 -29.994745 12.990833 5.031477 1.131734 -7.447793 -5.798024 7.217307 
0.841103 52.183437 -0.404988 -10.400391 1.884766 -169.472336 19.553596 0.944091 0.541927 -11.826172 -0.537109 -1.699221 51.063168 8.107644 2.471410 -45.068363 3.027344 32.822269 2.000000 -2.000000 0.000000 -58.691406 3.369141 19.922447 -87.128159 -0.408454 -3.033792 40.009144 42.650368 32.433422 -2.000000 2.000000 0.000000 54.140625 -16.367188 18.828123 95.350899 -0.088762 -3.062623 -58.334076 -44.407711 61.779285 -4.305869 10.261150 7.921917 13.304150 -5.154805 -1.383842 -8.106030 -0.428589 -5.574431 0.427928 -9.216062 -29.816378 12.998470 5.040524 1.113938 -7.435607 -5.772308 7.218358 
0.841161 52.183437 -0.399549 -10.400391 1.884766 -169.648117 19.553596 0.944091 0.541927 -11.826172 -0.537109 -1.699221 51.063168 8.107644 2.471410 -44.892578 3.007812 32.666016 2.000000 -2.000000 0.000000 -58.847660 3.261719 19.648438 -87.137016 -0.591999 -2.993810 39.790005 42.573387 32.327347 -2.000000 2.000000 0.000000 54.140625 -16.386721 18.779297 95.350899 -0.088762 -3.062623 -58.334076 -44.407711 61.779285 -4.305868 10.261153 7.921916 13.304149 -5.154808 -1.383842 -7.888903 -0.622824 -5.294121 0.261789 -9.117013 -29.626698 12.812795 5.030804 1.117166 -7.082901 -5.947918 7.373718 
0.845087 52.191311 -0.356884 -10.566406 1.884766 -169.648117 19.553596 0.944091 0.541927 -11.826172 -0.537109 -1.699221 51.063168 8.107644 2.471410 -44.892578 3.007812 32.666016 2.000000 -2.000000 0.000000 -59.023434 3.242188 19.609928 -86.961227 -0.601748 -2.993244 39.954037 42.374405 32.514359 -2.000000 2.000000 0.000000 54.160156 -16.201172 18.691404 95.350899 -0.088762 -3.062623 -58.435116 -44.158356 61.888912 -4.450466 10.245143 8.281730 13.476066 -5.143844 -1.386870 -7.914330 -0.963473 -5.290567 0.261789 -9.117013 -29.626698 12.812794 5.030806 1.117166 -7.239564 -5.917112 7.351008 
0.855005 52.191311 -0.283381 -10.400391 1.884766 -169.648117 19.553596 0.944091 0.541927 -12.001954 -0.537109 -1.699221 51.063168 8.107644 2.471410 -45.068363 3.027344 32.646488 2.000000 -2.000000 0.000000 -58.994141 3.066406 19.522007 -86.952644 -0.428516 -3.042406 39.632385 42.420593 32.229115 -2.000000 2.000000 0.000000 54.160156 -16.210938 18.505859 95.350899 -0.088762 -3.062623 -58.250080 -44.109657 62.026894 -4.450466 10.245142 8.281730 13.142775 -5.166188 -1.361288 -7.792874 -1.007177 -5.114411 0.067525 -9.197589 -29.450520 12.802654 5.030653 1.105753 -7.182687 -6.097124 7.217819 
0.853754 52.207073 -0.212006 -10.400391 1.884766 -169.823898 19.553596 0.944091 0.541927 -12.001954 -0.537109 -1.699221 51.063168 8.107644 2.471410 -45.263676 2.851562 32.285160 2.000000 -2.000000 0.000000 -58.994141 3.066406 19.522007 -86.952644 -0.428516 -3.042406 39.962677 42.384521 32.494503 -2.000000 2.000000 0.000000 53.984375 -16.015625 18.496092 95.170860 -0.057996 -3.256394 -58.243549 -44.079952 62.004608 -4.450467 10.245142 8.281730 13.142775 -5.166193 -1.361288 -7.450580 -0.794233 -5.211871 0.056140 -9.213069 -29.274488 12.802647 5.030670 1.105755 -7.189322 -6.113845 7.241814 
0.843529 52.207073 -0.138075 -10.224608 1.884766 -169.823898 19.553596 0.944091 0.541927 -12.001954 -0.537109 -1.875003 51.063168 8.107644 2.471410 -44.736328 2.636719 31.581835 2.000000 -2.000000 0.000000 -59.189457 3.046875 19.296875 -86.785439 -0.611497 -2.992679 40.155750 42.304043 32.960041 -2.000000 2.000000 0.000000 54.150387 -15.908204 18.535154 95.175117 -0.088762 -3.062623 -58.250080 -44.109657 62.026894 -4.451435 10.248425 8.459087 13.142769 -5.166204 -1.361289 -7.674782 -0.832952 -5.010186 0.242683 -9.147343 -29.274607 12.802647 5.030670 1.105755 -6.844659 -6.059752 7.320149 
0.829489 52.214947 -0.058749 -10.224608 1.884766 -169.823898 19.553596 0.944091 0.541927 -12.177734 -0.537109 -1.875000 51.063168 8.107644 2.471410 -43.740234 2.031250 29.805037 2.000000 -2.000000 0.000000 -59.189449 3.125000 19.326706 -86.785439 -0.611497 -2.992679 40.027065 42.269680 33.137108 -2.000000 2.000000 0.000000 53.925781 -15.809328 18.747770 95.175117 -0.088762 -3.062623 -58.435116 -44.158356 61.888912 -4.432752 10.240289 8.626666 13.310916 -5.166150 -1.366316 -7.670557 -0.804483 -5.168513 0.231553 -9.153929 -29.088058 12.802640 5.030689 1.105757 -6.855334 -6.080181 7.514269 
0.813683 52.230709 0.026592 -10.048829 1.884766 -169.990234 19.553596 0.944091 0.541927 -12.177734 -0.537109 -1.875000 51.063168 8.107644 2.471410 -41.708988 0.966797 27.275389 2.000000 -2.000000 0.000000 -59.345703 3.037110 19.248045 -86.609383 -0.610933 -2.982933 40.027760 42.259926 33.137108 -2.000000 2.000000 0.000000 53.916016 -15.781251 18.769531 94.999062 -0.079576 -3.052313 -58.334076 -44.407711 61.779285 -4.237791 10.222319 8.620833 13.482349 -5.158205 -1.350198 -7.870298 -0.790208 -5.166891 0.223883 -9.178463 -28.912720 12.802634 5.030700 1.105758 -6.684417 -6.084265 7.527593 
0.806821 52.230709 0.113276 -9.853516 1.728516 -170.107132 19.553596 0.944091 0.541927 -12.353518 -0.537109 -1.875003 51.063168 8.107644 2.471410 -39.326172 0.068359 23.837893 2.000000 -2.000000 0.000000 -58.964844 2.939453 19.062500 -86.604568 -0.611332 -3.159020 40.409603 42.421570 33.250465 -2.000000 2.000000 0.000000 53.906250 -15.498048 18.825516 94.817917 0.104928 -3.198107 -58.676849 -44.210003 61.993828 -4.237790 10.222319 8.620832 13.311178 -5.166246 -1.356588 -7.514696 -0.646002 -5.285172 0.223881 -9.178464 -28.912720 12.802634 5.030705 1.105758 -6.644979 -6.079136 7.327628 
0.795314 52.246468 0.195459 -9.697266 1.728516 -170.107132 19.553596 0.944091 0.541927 -12.353518 -0.537109 -1.875003 51.063168 8.107644 2.471410 -36.406250 -0.859375 20.146532 2.000000 -2.000000 0.000000 -58.798832 2.929688 19.091795 -86.604568 -0.611332 -3.159020 40.409603 42.421570 33.250465 -2.000000 2.000000 0.000000 53.720703 -15.478517 18.884109 94.823280 -0.079576 -3.052313 -58.564693 -44.380447 61.823082 -4.021652 10.178970 8.830652 13.482409 -5.155650 -1.379151 -7.632614 -0.922806 -5.114507 0.212421 -9.184178 -28.735920 12.802629 5.030719 1.105760 -6.675052 -6.059738 7.335506 
0.784174 52.262211 0.276889 -9.521484 1.728516 -170.273148 19.553596 0.944091 0.541927 -12.538872 -0.537122 -1.875046 51.063168 8.107644 2.471410 -33.300781 -1.787109 16.005859 2.000000 -2.000000 0.000000 -58.662109 3.232422 19.638672 -86.600807 -0.427952 -3.032661 40.581547 42.633717 33.445778 -2.000000 2.000000 0.000000 53.896484 -15.312500 18.935547 94.647499 -0.069827 -3.051749 -58.510563 -44.446186 61.621975 -4.022700 10.171726 9.007692 13.492183 -5.158289 -1.370496 -7.676891 -0.831279 -4.998890 0.212417 -9.184179 -28.735920 12.802628 5.030723 1.105760 -6.518024 -5.894264 7.467272 
0.777713 52.270096 0.381161 -9.521484 1.728516 -170.448929 19.553596 0.944091 0.541927 -12.705078 -0.537109 -1.875003 51.063168 8.107644 2.471410 -30.156256 -2.187500 11.982499 2.000000 -2.000000 0.000000 -58.330074 3.310547 19.365799 -86.609383 -0.610933 -2.982933 40.398438 42.704735 33.656864 -2.000000 2.000000 0.000000 53.671875 -15.166015 19.147837 94.471718 -0.060077 -3.051185 -58.717373 -44.466671 61.561726 -4.003685 10.173962 9.175570 13.481807 -5.158051 -1.369658 -7.552738 -0.639798 -5.101256 0.194843 -9.423846 -28.567356 12.809592 5.039869 1.107438 -6.670625 -6.072116 7.340324 
0.779408 52.277973 0.473736 -9.521484 1.728516 -170.624710 19.553596 0.944091 0.541927 -12.705079 -0.722656 -1.894531 51.063168 8.107644 2.471410 -27.011721 -2.568359 8.095704 2.000000 -2.000000 0.000000 -58.017582 3.593750 19.726563 -86.776588 -0.427952 -3.032661 40.532108 42.925156 33.794807 -2.000000 2.000000 0.000000 53.691406 -14.990235 18.874428 94.466072 0.114114 -3.187799 -58.582989 -44.293270 61.500607 -4.003685 10.173964 9.175571 13.481807 -5.158051 -1.369658 -7.361009 -0.616112 -5.053940 0.194844 -9.423848 -28.567356 12.809593 5.039868 1.107438 -6.707250 -5.733227 7.138529 
